<svg xmlns="http://www.w3.org/2000/svg" viewBox="0 0 256 256" focusable="false" color="var(--token-0f1ba863-2eb6-42a6-b619-dc6a75636507, rgb(242, 36, 36))" style="user-select: none; width: 100%; height: 100%; display: inline-block; fill: var(--token-0f1ba863-2eb6-42a6-b619-dc6a75636507, rgb(242, 36, 36)); color: var(--token-0f1ba863-2eb6-42a6-b619-dc6a75636507, rgb(242, 36, 36)); flex-shrink: 0;"><g color="var(--token-0f1ba863-2eb6-42a6-b619-dc6a75636507, rgb(242, 36, 36))" weight="duotone"><path d="M224,56V200a8,8,0,0,1-8,8H40a8,8,0,0,1-8-8V56a8,8,0,0,1,8-8H216A8,8,0,0,1,224,56Z" opacity="0.2"/><path d="M216,40H40A16,16,0,0,0,24,56V200a16,16,0,0,0,16,16H216a16,16,0,0,0,16-16V56A16,16,0,0,0,216,40Zm0,160H40V56H216V200ZM184,96a8,8,0,0,1-8,8H80a8,8,0,0,1,0-16h96A8,8,0,0,1,184,96Zm0,32a8,8,0,0,1-8,8H80a8,8,0,0,1,0-16h96A8,8,0,0,1,184,128Zm0,32a8,8,0,0,1-8,8H80a8,8,0,0,1,0-16h96A8,8,0,0,1,184,160Z"/></g></svg>